<?xml version="1.0" encoding="UTF-8"?>
<svg id="Layer_2" data-name="Layer 2" xmlns="http://www.w3.org/2000/svg" viewBox="0 0 1018.3 171.63">
  <defs>
    <style>
      .cls-1 {
        fill: #f43c11;
      }

      .cls-1, .cls-2, .cls-3 {
        stroke-width: 0px;
      }

      .cls-2 {
        fill: #00184c;
      }
    </style>
  </defs>
  <g id="Layer_1-2" data-name="Layer 1">
    <g>
      <g>
        <path class="cls-2" d="M214.97,82.53h-10.43s-.97-3.27-1.04-3.45c-1.26-3.09-3.12-5.93-5.26-8.48-3.56-4.23-7.96-7.71-12.67-10.59-15.72-9.63-34.69-13.43-52.86-14.72-6.2-.44-12.42-.59-18.63-.59h-10.84c-4.66,0-9.32.23-13.96.7-7.92.81-17.66,2.67-24.67,5.51-16.72,6.78-23.89,17.41-23.89,30.26,0,14.22,13.42,26.59,33.22,32.97,5.33,1.72,11.13,3.01,17.25,3.77v7.62c-4.67.52-9.5.8-14.42.8-.95,0-1.89-.01-2.83-.03C32.86,125.44,0,105.57,0,81.18c0-14.17,11.1-26.82,28.47-35.1,0,0,.17-.08.48-.22.76-.35,2.5-1.09,4.96-2,13.96-5.23,23.65-7.07,47.19-7.83,9.65-.31,19.32-.27,28.97-.17,18.95.2,37.53,1,55.78,6.53,7.92,2.4,15.68,5.55,22.85,9.71,7.24,4.2,13.95,9.52,19.01,16.25,3.22,4.27,5.71,9.07,7.28,14.19Z"/>
        <path class="cls-1" d="M1.74,124.87h10.43s.97,3.27,1.04,3.45c1.26,3.09,3.12,5.93,5.26,8.48,3.56,4.23,7.96,7.71,12.67,10.59,15.72,9.63,34.69,13.43,52.86,14.72,6.2.44,12.42.59,18.63.59h10.84c4.66,0,9.32-.23,13.96-.7,7.92-.81,17.66-2.67,24.67-5.51,16.72-6.78,23.89-17.41,23.89-30.26,0-14.22-13.42-26.59-33.22-32.97-5.33-1.72-11.13-3.01-17.25-3.77v-7.62c4.67-.52,9.5-.8,14.42-.8.95,0,1.89.01,2.83.03,41.09.87,73.95,20.74,73.95,45.13,0,14.17-11.1,26.82-28.47,35.1,0,0-.17.08-.48.22-.76.35-2.5,1.09-4.96,2-13.96,5.23-23.65,7.07-47.19,7.83-9.65.31-19.32.27-28.97.17-18.95-.2-37.53-1-55.78-6.53-7.92-2.4-15.68-5.55-22.85-9.71-7.24-4.2-13.95-9.52-19.01-16.25-3.22-4.27-5.71-9.07-7.28-14.19Z"/>
      </g>
      <g>
        <path class="cls-2" d="M373.42,77.97c-8.1-7.63-17.35-10.18-28.23-10.18-13.42,0-20.82,4.16-20.82,11.34s6.71,11.57,21.28,12.49c21.52,1.39,48.82,6.25,48.82,36.55,0,20.13-16.43,37.48-49.05,37.48-18.05,0-36.09-3.01-52.75-20.36l13.88-20.13c8.1,9.02,26.61,15.73,39.33,15.96,10.64.23,20.59-5.32,20.59-13.65,0-7.87-6.48-11.11-22.67-12.03-21.52-1.62-47.2-9.49-47.2-35.4s27.3-35.63,48.12-35.63c17.81,0,31.23,3.47,44.42,15.04l-15.73,18.51Z"/>
        <path class="cls-2" d="M430.8,114.75c1.85,14.11,14.11,24.29,34.01,24.29,10.41,0,24.06-3.93,30.54-10.64l18.04,17.81c-12.03,12.49-31.7,18.51-49.05,18.51-39.33,0-62.7-24.29-62.7-60.85s23.6-59.69,60.61-59.69,62,23.6,57.61,70.56h-89.07ZM492.8,91.38c-1.85-14.81-13.42-22.21-29.61-22.21-15.27,0-27.76,7.4-31.93,22.21h61.54Z"/>
        <path class="cls-2" d="M564.05,0v63.16c6.71-11.8,25.45-18.28,37.48-18.28,33.32,0,58.07,20.36,58.07,59.69s-25.22,59.69-58.76,59.69c-13.88,0-27.99-4.63-36.79-18.28l-1.85,15.73h-26.37V0h28.23ZM565.91,104.57c0,20.59,15.27,33.55,33.08,33.55s32.39-13.65,32.39-33.55-14.34-33.31-32.39-33.31-33.08,13.42-33.08,33.31Z"/>
        <path class="cls-2" d="M758.62,161.72v-59.69c0-17.35-9.49-30.54-27.53-30.54s-29.15,14.58-29.15,31.93v58.3h-27.99V47.43h25.22l1.85,15.5c11.57-11.34,23.14-17.12,37.48-17.12,26.84,0,48.35,20.13,48.35,55.99v59.92h-28.22Z"/>
        <path class="cls-2" d="M895.82,47.66h27.07v114.06h-26.61l-1.39-16.66c-6.48,13.42-24.29,19.9-37.02,20.13-33.78.23-58.76-20.59-58.76-60.62s26.14-59.92,59.46-59.69c15.27,0,29.84,7.17,36.32,18.51l.93-15.73ZM827.34,104.57c0,21.75,15.04,34.7,33.78,34.7,44.42,0,44.42-69.17,0-69.17-18.74,0-33.78,12.72-33.78,34.47Z"/>
      </g>
      <g>
        <path class="cls-2" d="M976.17,141.88c-1.92-1.81-4.11-2.41-6.68-2.41-3.18,0-4.93.99-4.93,2.68s1.59,2.74,5.04,2.96c5.1.33,11.56,1.48,11.56,8.66,0,4.77-3.89,8.88-11.62,8.88-4.27,0-8.55-.71-12.49-4.82l3.29-4.77c1.92,2.14,6.3,3.73,9.32,3.78,2.52.05,4.88-1.26,4.88-3.23,0-1.86-1.53-2.63-5.37-2.85-5.1-.38-11.18-2.25-11.18-8.38s6.46-8.44,11.4-8.44c4.22,0,7.4.82,10.52,3.56l-3.73,4.38Z"/>
        <path class="cls-2" d="M991.78,158.26c0,5.21-7.89,5.21-7.89,0s7.89-5.21,7.89,0Z"/>
        <path class="cls-2" d="M1018.3,158.26c-3.12,3.07-6.41,4.27-10.41,4.27-7.84,0-14.36-4.71-14.36-14.3s6.52-14.3,14.36-14.3c3.84,0,6.79,1.1,9.75,4l-4.22,4.44c-1.59-1.42-3.56-2.14-5.42-2.14-4.49,0-7.78,3.29-7.78,8,0,5.15,3.51,7.89,7.67,7.89,2.14,0,4.27-.6,5.92-2.25l4.49,4.38Z"/>
      </g>
      <g>
        <path class="cls-3" d="M942.76,49.43v-1h7v1h-2.93v8.42h-1.13v-8.42h-2.93Z"/>
        <path class="cls-3" d="M951.19,57.85v-9.42h1.21l3.39,8.48,3.39-8.48h1.21v9.42h-1.08v-7.27l-.48,1.32-2.46,5.95h-1.16l-2.46-5.95c-.27-.72-.43-1.16-.49-1.32v7.27h-1.08Z"/>
      </g>
    </g>
  </g>
</svg>