<svg width="22" height="23" viewBox="0 0 22 23" fill="none" xmlns="http://www.w3.org/2000/svg">
<path d="M8.25 11.3527C8.25 11.905 7.80228 12.3527 7.25 12.3527C6.69772 12.3527 6.25 11.905 6.25 11.3527C6.25 10.8004 6.69772 10.3527 7.25 10.3527C7.80228 10.3527 8.25 10.8004 8.25 11.3527Z" fill="#464E5F"/>
<path d="M12.25 11.3527C12.25 11.905 11.8023 12.3527 11.25 12.3527C10.6977 12.3527 10.25 11.905 10.25 11.3527C10.25 10.8004 10.6977 10.3527 11.25 10.3527C11.8023 10.3527 12.25 10.8004 12.25 11.3527Z" fill="#464E5F"/>
<path d="M15.25 12.3527C15.8023 12.3527 16.25 11.905 16.25 11.3527C16.25 10.8004 15.8023 10.3527 15.25 10.3527C14.6977 10.3527 14.25 10.8004 14.25 11.3527C14.25 11.905 14.6977 12.3527 15.25 12.3527Z" fill="#464E5F"/>
<path fill-rule="evenodd" clip-rule="evenodd" d="M11.25 0.602722C5.31294 0.602722 0.5 5.41566 0.5 11.3527C0.5 17.2898 5.31294 22.1027 11.25 22.1027C17.1871 22.1027 22 17.2898 22 11.3527C22 5.41566 17.1871 0.602722 11.25 0.602722ZM2 11.3527C2 6.24409 6.14137 2.10272 11.25 2.10272C16.3586 2.10272 20.5 6.24409 20.5 11.3527C20.5 16.4614 16.3586 20.6027 11.25 20.6027C6.14137 20.6027 2 16.4614 2 11.3527Z" fill="#464E5F"/>
</svg>
