<svg width="150" height="107" viewBox="0 0 114 107" fill="none" xmlns="http://www.w3.org/2000/svg">
<path fill-rule="evenodd" clip-rule="evenodd" d="M20.6126 16.8427C20.8281 13.137 23.7637 10.3364 27.429 9.74938C31.0477 9.16975 35.5791 8.32241 39.11 7.26542C43.5501 5.93625 49.5723 3.32835 53.3723 1.6039C55.6767 0.55818 58.3234 0.55818 60.6278 1.6039C64.4278 3.32835 70.4499 5.93625 74.89 7.26542C78.421 8.32241 82.9524 9.16975 86.5711 9.74938C90.2364 10.3364 93.172 13.137 93.3875 16.8427C94.2403 31.5122 92.798 67.8859 59.2801 78.9539C58.9966 79.0475 58.7066 79.123 58.4128 79.1804V65.4853H65.1403C68.5527 65.4853 71.4874 64.9198 73.9444 63.7888C76.4208 62.6383 78.3221 61.0393 79.6481 58.9919C80.974 56.9444 81.637 54.5459 81.637 51.7965C81.637 49.008 80.974 46.5315 79.6481 44.3671C78.3221 42.1831 76.4208 40.4671 73.9444 39.2191C71.4874 37.9711 68.5527 37.3472 65.1403 37.3472H48.1462V76.2756C45.5456 74.9939 43.1833 73.5374 41.0382 71.9392V37.5152H31.0259V61.534C20.5024 46.3422 20.0398 26.6962 20.6126 16.8427ZM65.1403 57.5586H58.4128V45.2738H65.1403C66.5832 45.2738 67.7532 45.5858 68.6502 46.2098C69.5472 46.8143 70.2004 47.6138 70.6099 48.6082C71.0389 49.6027 71.2534 50.685 71.2534 51.855C71.2534 52.9469 71.0389 53.9317 70.6099 54.8092C70.2004 55.6672 69.5472 56.3399 68.6502 56.8274C67.7532 57.3149 66.5832 57.5586 65.1403 57.5586Z" fill="#3C3C9E"/>
<path d="M6.63868 106.18H4.40929V94.9096H6.63868V106.18ZM11.097 106.18H8.9915V94.9096H10.998L15.7788 102.514H15.8944V94.9096H17.9999V106.18H16.0017L11.2126 98.5344H11.097V106.18ZM24.1014 106.42C22.7032 106.42 21.6408 106.161 20.9142 105.644C20.1876 105.126 19.8243 104.317 19.8243 103.216V102.836H21.9628V102.993C21.9628 103.599 22.1225 104.028 22.4418 104.281C22.761 104.529 23.306 104.653 24.0766 104.653H24.0932C24.8528 104.653 25.3895 104.537 25.7033 104.306C26.017 104.075 26.1739 103.698 26.1739 103.175V103.158C26.1739 102.839 26.1079 102.578 25.9758 102.374C25.8436 102.165 25.6427 101.994 25.373 101.862C25.1033 101.724 24.7565 101.609 24.3326 101.515L22.8876 101.193C22.2986 101.056 21.7867 100.863 21.3518 100.615C20.9225 100.367 20.5894 100.034 20.3527 99.6161C20.1215 99.1977 20.0059 98.672 20.0059 98.039V98.0225C20.0059 96.9546 20.3362 96.1289 20.9968 95.5454C21.6628 94.9619 22.695 94.6701 24.0932 94.6701H24.1097C25.4033 94.6701 26.3941 94.9261 27.0822 95.438C27.7758 95.9499 28.1226 96.7371 28.1226 97.7995V98.1463H26.0253V98.0307C26.0253 97.4582 25.8822 97.0481 25.5959 96.8004C25.3097 96.5472 24.8143 96.4206 24.1097 96.4206H24.0932C23.3886 96.4206 22.8931 96.5362 22.6069 96.7674C22.3262 96.9986 22.1858 97.3591 22.1858 97.8491V97.8656C22.1858 98.1738 22.2491 98.4243 22.3757 98.617C22.5023 98.8041 22.6895 98.9528 22.9372 99.0628C23.1849 99.1729 23.4876 99.2693 23.8454 99.3518L25.2904 99.6739C25.962 99.8225 26.529 100.021 26.9914 100.268C27.4538 100.516 27.8033 100.855 28.04 101.284C28.2822 101.713 28.4033 102.283 28.4033 102.993V103.01C28.4033 104.144 28.051 104.997 27.3464 105.569C26.6418 106.136 25.5657 106.42 24.1179 106.42H24.1014ZM34.7113 106.42C33.2085 106.42 32.0773 106.087 31.3176 105.421C30.558 104.749 30.1782 103.703 30.1782 102.283V94.9096H32.3993V102.291C32.3993 103.095 32.5754 103.676 32.9277 104.034C33.2855 104.386 33.88 104.562 34.7113 104.562H34.7278C35.559 104.562 36.1507 104.383 36.503 104.025C36.8553 103.668 37.0315 103.09 37.0315 102.291V94.9096H39.2609V102.283C39.2609 103.703 38.8838 104.749 38.1297 105.421C37.381 106.087 36.2471 106.42 34.7278 106.42H34.7113ZM41.4981 106.18V94.9096H45.9486C47.2642 94.9096 48.2193 95.2041 48.8138 95.7931C49.4083 96.3766 49.7056 97.2683 49.7056 98.4683V98.4849C49.7056 99.6794 49.4083 100.571 48.8138 101.16C48.2193 101.744 47.2642 102.035 45.9486 102.035H43.7192V106.18H41.4981ZM47.4927 106.18L45.6844 101.416L47.9386 101.234L49.9285 106.18H47.4927ZM43.7027 100.351H45.8413C46.4413 100.351 46.8679 100.211 47.1211 99.9298C47.3743 99.6491 47.5009 99.1702 47.5009 98.4931V98.4601C47.5009 97.783 47.3716 97.3041 47.1129 97.0234C46.8596 96.7426 46.433 96.6023 45.833 96.6023H43.7027V100.351ZM51.8602 106.18V94.9096H59.0851V96.7261H54.0648V99.6161H58.7466V101.317H54.0648V104.356H59.1677V106.18H51.8602ZM64.4265 106.18V94.9096H68.8193C70.1569 94.9096 71.1257 95.2178 71.7257 95.8344C72.3313 96.4454 72.634 97.3839 72.634 98.65V98.7078C72.634 99.9739 72.3313 100.915 71.7257 101.532C71.1257 102.143 70.1569 102.448 68.8193 102.448H66.6477V106.18H64.4265ZM66.6312 100.673H68.7037C69.3257 100.673 69.7688 100.53 70.0331 100.244C70.3028 99.9518 70.4377 99.4399 70.4377 98.7078V98.6417C70.4377 97.9151 70.3028 97.4059 70.0331 97.1142C69.7688 96.8224 69.3257 96.6766 68.7037 96.6766H66.6312V100.673ZM74.2933 106.18V94.9096H78.7438C80.0594 94.9096 81.0145 95.2041 81.609 95.7931C82.2035 96.3766 82.5007 97.2683 82.5007 98.4683V98.4849C82.5007 99.6794 82.2035 100.571 81.609 101.16C81.0145 101.744 80.0594 102.035 78.7438 102.035H76.5144V106.18H74.2933ZM80.2879 106.18L78.4796 101.416L80.7337 101.234L82.7237 106.18H80.2879ZM76.4979 100.351H78.6364C79.2365 100.351 79.6631 100.211 79.9163 99.9298C80.1695 99.6491 80.2961 99.1702 80.2961 98.4931V98.4601C80.2961 97.783 80.1667 97.3041 79.908 97.0234C79.6548 96.7426 79.2282 96.6023 78.6282 96.6023H76.4979V100.351ZM86.8848 106.18H84.6554V94.9096H86.8848V106.18ZM89.2624 106.18V94.9096H91.8138L94.745 102.828H94.8111L97.7341 94.9096H100.294V106.18H98.279V98.3197H98.1717L95.7276 104.983H93.8202L91.3762 98.3197H91.2688V106.18H89.2624ZM102.671 106.18V94.9096H109.896V96.7261H104.876V99.6161H109.558V101.317H104.876V104.356H109.979V106.18H102.671Z" fill="#3C3C9E"/>
</svg>
