<svg width="19" height="14" viewBox="0 0 19 14" fill="none" xmlns="http://www.w3.org/2000/svg">
<path opacity="0.6" d="M9.83329 2.41667C12.9916 2.41667 15.8083 4.19167 17.1833 7C15.8083 9.80833 13 11.5833 9.83329 11.5833C6.66663 11.5833 3.85829 9.80833 2.48329 7C3.85829 4.19167 6.67496 2.41667 9.83329 2.41667ZM9.83329 0.75C5.66663 0.75 2.10829 3.34167 0.666626 7C2.10829 10.6583 5.66663 13.25 9.83329 13.25C14 13.25 17.5583 10.6583 19 7C17.5583 3.34167 14 0.75 9.83329 0.75ZM9.83329 4.91667C10.9833 4.91667 11.9166 5.85 11.9166 7C11.9166 8.15 10.9833 9.08333 9.83329 9.08333C8.68329 9.08333 7.74996 8.15 7.74996 7C7.74996 5.85 8.68329 4.91667 9.83329 4.91667ZM9.83329 3.25C7.76663 3.25 6.08329 4.93333 6.08329 7C6.08329 9.06667 7.76663 10.75 9.83329 10.75C11.9 10.75 13.5833 9.06667 13.5833 7C13.5833 4.93333 11.9 3.25 9.83329 3.25Z" fill="#2A2E29"/>
</svg>
